<?xml version="1.0" standalone="no"?>
<!DOCTYPE svg PUBLIC "-//W3C//DTD SVG 20010904//EN"
 "http://www.w3.org/TR/2001/REC-SVG-20010904/DTD/svg10.dtd">
<svg version="1.0" xmlns="http://www.w3.org/2000/svg"
 width="800.000000pt" height="800.000000pt" viewBox="0 0 800.000000 800.000000"
 preserveAspectRatio="xMidYMid meet">
<metadata>
Created by potrace 1.11, written by Peter Selinger 2001-2013
</metadata>
<g transform="translate(0.000000,800.000000) scale(0.100000,-0.100000)"
fill="#000000" stroke="none">
<path d="M0 4000 l0 -4000 4000 0 4000 0 0 4000 0 4000 -4000 0 -4000 0 0
-4000z m4305 3489 c294 -18 531 -58 780 -130 871 -253 1540 -846 1914 -1696
41 -94 123 -316 135 -365 l6 -28 -687 0 -688 0 -39 72 c-235 431 -624 759
-1071 901 -212 67 -313 82 -560 81 -202 0 -230 -2 -340 -27 -384 -87 -672
-252 -960 -549 -174 -179 -286 -339 -406 -578 -266 -533 -339 -1205 -193
-1795 145 -586 455 -1063 895 -1377 113 -81 338 -196 467 -237 394 -129 818
-113 1207 46 393 160 738 470 952 858 l50 90 682 3 c599 2 681 0 681 -13 0
-24 -98 -280 -156 -410 -391 -862 -1118 -1479 -2009 -1706 -320 -82 -654 -117
-995 -105 -457 17 -839 113 -1255 315 -319 156 -574 340 -840 606 -274 274
-453 520 -630 870 -199 392 -320 807 -372 1272 -24 220 -24 653 0 853 92 739
335 1334 766 1872 496 620 1218 1038 1986 1148 260 38 420 45 680 29z"/>
</g>
</svg>
